<svg width="112" height="32" fill="none" xmlns="http://www.w3.org/2000/svg"><path d="M13.6 7.2H7.2V32H0V7.2L7.2 0h6.4v7.2Z" fill="#D7F3F5"/><path d="M13.6 7.2 20.8 0h6.4l7.2 7.2V32h-7.2V7.2h-6.4V32h-7.2V7.2ZM45.6 7.2 52.8 0h20v7.2H45.6ZM65.6 24.8v-5.2H38.4v-5.2l7.2-7.2v5.2h27.2v5.2l-7.2 7.2ZM65.6 24.8 58.4 32h-20v-7.2h27.2Z" fill="#D7F3F5"/><path fill-rule="evenodd" clip-rule="evenodd" d="M84 19.6h20V32h7.2V19.6l-7.2-7.2h7.2V7.2L104 0H84l-7.2 7.2v5.2H84l-7.2 7.2V32H84V19.6Zm20-12.4H84v5.2h20V7.2Z" fill="#D7F3F5"/></svg>